<svg width="1122.247021484375px" height="140px" xmlns="http://www.w3.org/2000/svg" viewBox="-311.1235107421875 5 1122.247021484375 140" style="background: rgba(0, 0, 0, 0);" preserveAspectRatio="xMidYMid"><defs><filter id="editing-neon" x="-100%" y="-100%" width="300%" height="300%"><feFlood flood-color="rgba(0%,46.142857142857174%,100%,0.558)" result="flood"></feFlood><feComposite operator="in" in="flood" in2="SourceAlpha" result="color"></feComposite><feFlood flood-color="rgba(0%,46.142857142857174%,100%,0.558)" result="flood2"></feFlood><feComposite operator="in" in="flood2" in2="SourceAlpha" result="color2"></feComposite><feMorphology operator="dilate" radius="2" in="color" result="dilate"></feMorphology><feGaussianBlur stdDeviation="6" in="color" result="blur1"></feGaussianBlur><feGaussianBlur stdDeviation="2.5" in="color" result="blur2"></feGaussianBlur><feGaussianBlur stdDeviation="1" in="SourceAlpha" result="blur3"></feGaussianBlur><feGaussianBlur stdDeviation="6" in="dilate" result="blur4"></feGaussianBlur><feConvolveMatrix in="color2" result="conv" order="3,3" divisor="1" kernelMatrix="1 1 1  1 1 1  1 1 1"></feConvolveMatrix><feMerge><feMergeNode in="blur1"></feMergeNode><feMergeNode in="blur2"></feMergeNode><feMergeNode in="blur4"></feMergeNode><feMergeNode in="blur3"></feMergeNode><feMergeNode in="blur3"></feMergeNode><feMergeNode in="blur3"></feMergeNode><feMergeNode in="blur3"></feMergeNode><feMergeNode in="conv"></feMergeNode><feMergeNode in="SourceGraphic"></feMergeNode></feMerge></filter></defs><g filter="url(#editing-neon)"><g transform="translate(-156.77139949798584, 103.12000465393066)"><path d="M7.37-37.01L7.37-37.01L7.37-37.01Q4.79-38.99 4.79-43.21L4.79-43.21L4.79-43.21Q4.79-47.42 7.56-49.63L7.56-49.63L7.56-49.63Q10.34-51.83 15.12-51.83L15.12-51.83L15.12-51.83Q18.16-51.83 25.38-50.77L25.38-50.77L30.55-50.01L30.55-50.01Q33.14-49.70 35.83-49.70L35.83-49.70L35.83-49.70Q38.53-49.70 40.36-50.84L40.36-50.84L40.36-50.84Q43.09-48.41 43.09-44.92L43.09-44.92L43.09-44.92Q43.09-41.42 39.98-38.91L39.98-38.91L39.98-38.91Q36.78-36.25 32.68-36.25L32.68-36.25L32.68-36.25Q30.70-36.25 27.51-36.78L27.51-36.78L27.51-36.78Q23.79-25.08 23.79-16.95L23.79-16.95L23.79-16.95Q23.79-8.82 27.89-4.56L27.89-4.56L27.89-4.56Q25.99-1.14 23.18 0.19L23.18 0.19L23.18 0.19Q20.37 1.52 16.15 1.52L16.15 1.52L16.15 1.52Q11.93 1.52 9.31-0.80L9.31-0.80L9.31-0.80Q6.69-3.12 6.69-7.90L6.69-7.90L6.69-7.90Q6.69-13.45 9.73-22.57L9.73-22.57L9.73-22.57Q12.77-31.62 17.33-38.53L17.33-38.53L17.33-38.53Q15.12-38.76 12.84-38.76L12.84-38.76L12.84-38.76Q8.13-38.76 7.37-37.01ZM78.89-8.44L78.89-8.44L78.89-8.44Q78.89-5.09 82.31-4.10L82.31-4.10L82.31-4.10Q81.47-1.29 78.20 0.23L78.20 0.23L78.20 0.23Q75.47 1.52 72.47 1.52L72.47 1.52L72.47 1.52Q69.46 1.52 67.91 0.72L67.91 0.72L67.91 0.72Q66.35-0.08 65.51-1.37L65.51-1.37L65.51-1.37Q64.14-3.34 64.14-7.07L64.14-7.07L64.14-7.07Q64.14-9.27 65.36-15.35L65.36-15.35L66.42-21.13L66.42-21.13Q67.72-27.74 67.72-30.17L67.72-30.17L67.72-30.17Q67.72-34.43 65.36-34.43L65.36-34.43L65.36-34.43Q62.40-34.43 60.50-30.10L60.50-30.10L60.50-30.10Q59.74-28.42 59.20-25.92L59.20-25.92L54.04 0L38.76 1.52L49.48-53.20L64.75-54.72L64.14-51.68L64.14-51.68Q62.02-39.98 60.19-36.02L60.19-36.02L60.19-36.02Q64.45-40.28 72.28-40.28L72.28-40.28L72.28-40.28Q80.56-40.28 82.08-34.81L82.08-34.81L82.08-34.81Q82.61-33.06 82.61-31.54L82.61-31.54L82.61-31.54Q82.61-30.02 82.50-28.84L82.50-28.84L82.50-28.84Q82.38-27.66 82.00-25.54L82.00-25.54L81.02-20.06L79.27-11.48L79.27-11.48Q78.89-9.73 78.89-8.44ZM119.24-12.84L119.24-12.84L119.24-12.84Q121.14-11.55 121.14-8.70L121.14-8.70L121.14-8.70Q121.14-5.85 119.70-4.03L119.70-4.03L119.70-4.03Q118.26-2.20 115.90-0.99L115.90-0.99L115.90-0.99Q111.04 1.52 105.79 1.52L105.79 1.52L105.79 1.52Q100.55 1.52 97.47 0.38L97.47 0.38L97.47 0.38Q94.39-0.76 92.34-2.89L92.34-2.89L92.34-2.89Q88.31-6.92 88.31-14.29L88.31-14.29L88.31-14.29Q88.31-25.76 94.54-32.76L94.54-32.76L94.54-32.76Q101.23-40.28 112.86-40.28L112.86-40.28L112.86-40.28Q120.08-40.28 123.65-37.24L123.65-37.24L123.65-37.24Q126.31-34.96 126.31-31.24L126.31-31.24L126.31-31.24Q126.31-17.86 103.21-17.86L103.21-17.86L103.21-17.86Q102.90-15.88 102.90-14.21L102.90-14.21L102.90-14.21Q102.90-10.72 104.46-9.39L104.46-9.39L104.46-9.39Q106.02-8.06 108.91-8.06L108.91-8.06L108.91-8.06Q111.80-8.06 114.87-9.39L114.87-9.39L114.87-9.39Q117.95-10.72 119.24-12.84ZM103.74-21.13L103.74-21.13L103.74-21.13Q109.14-21.13 112.25-24.47L112.25-24.47L112.25-24.47Q115.37-27.66 115.37-32.76L115.37-32.76L115.37-32.76Q115.37-34.50 114.72-35.45L114.72-35.45L114.72-35.45Q114.08-36.40 112.78-36.40L112.78-36.40L112.78-36.40Q111.49-36.40 110.39-35.91L110.39-35.91L110.39-35.91Q109.29-35.42 108.15-33.74L108.15-33.74L108.15-33.74Q105.34-29.94 103.74-21.13ZM183.62 1.52L183.62 1.52L183.62 1.52Q174.42 1.52 174.42-5.62L174.42-5.62L174.42-5.62Q174.42-8.74 175.75-14.78L175.75-14.78L175.75-14.78Q177.08-20.82 177.54-23.26L177.54-23.26L177.54-23.26Q178.60-28.80 178.60-30.55L178.60-30.55L178.60-30.55Q178.60-34.43 175.71-34.43L175.71-34.43L175.71-34.43Q173.81-34.43 171.99-31.81L171.99-31.81L171.99-31.81Q170.16-29.18 169.33-23.94L169.33-23.94L164.62 0L149.80 1.52L153.90-19.15L153.90-19.15Q154.58-22.57 155.19-26.45L155.19-26.45L155.19-26.45Q155.80-30.32 155.80-30.93L155.80-30.93L155.80-30.93Q155.80-34.43 153.22-34.43L153.22-34.43L153.22-34.43Q151.47-34.43 149.57-31.84L149.57-31.84L149.57-31.84Q147.67-29.26 146.60-23.94L146.60-23.94L141.97 0L127.00 1.52L134.98-38.76L147.36-40.28L146.07-32.60L146.07-32.60Q148.05-36.71 151.70-38.49L151.70-38.49L151.70-38.49Q155.34-40.28 161.04-40.28L161.04-40.28L161.04-40.28Q164.31-40.28 166.44-38.68L166.44-38.68L166.44-38.68Q168.57-37.09 169.25-34.50L169.25-34.50L169.25-34.50Q170.54-37.16 173.85-38.72L173.85-38.72L173.85-38.72Q177.16-40.28 181.22-40.28L181.22-40.28L181.22-40.28Q185.29-40.28 187.30-39.41L187.30-39.41L187.30-39.41Q189.32-38.53 190.53-37.09L190.53-37.09L190.53-37.09Q192.58-34.43 192.58-29.56L192.58-29.56L192.58-29.56Q192.58-24.78 190.53-14.82L190.53-14.82L190.53-14.82Q189.47-9.96 189.47-8.17L189.47-8.17L189.47-8.17Q189.47-6.38 190.49-5.32L190.49-5.32L190.49-5.32Q191.52-4.26 193.04-4.10L193.04-4.10L193.04-4.10Q192.28-1.52 189.66 0L189.66 0L189.66 0Q187.04 1.52 183.62 1.52ZM215.46 1.52L215.46 1.52L215.46 1.52Q198.74 1.52 198.74-14.21L198.74-14.21L198.74-14.21Q198.74-25.38 204.90-32.60L204.90-32.60L204.90-32.60Q211.43-40.28 222.76-40.28L222.76-40.28L222.76-40.28Q230.96-40.28 235.14-36.48L235.14-36.48L235.14-36.48Q239.32-32.68 239.32-24.70L239.32-24.70L239.32-24.70Q239.32-12.54 232.79-5.47L232.79-5.47L232.79-5.47Q226.40 1.52 215.46 1.52ZM217.44-31.54L217.44-31.54L217.44-31.54Q216.52-29.49 215.80-26.41L215.80-26.41L215.80-26.41Q215.08-23.33 214.17-18.47L214.17-18.47L214.17-18.47Q213.26-13.60 213.26-7.60L213.26-7.60L213.26-7.60Q213.26-5.62 213.90-4.33L213.90-4.33L213.90-4.33Q214.55-3.04 216.30-3.04L216.30-3.04L216.30-3.04Q218.04-3.04 219.15-3.88L219.15-3.88L219.15-3.88Q220.25-4.71 221.08-6.69L221.08-6.69L221.08-6.69Q222.60-10.18 223.82-16.68L223.82-16.68L223.82-16.68Q225.04-23.18 225.15-25.99L225.15-25.99L225.15-25.99Q225.26-28.80 225.26-30.89L225.26-30.89L225.26-30.89Q225.26-32.98 224.66-34.35L224.66-34.35L224.66-34.35Q224.05-35.72 222.34-35.72L222.34-35.72L222.34-35.72Q220.63-35.72 219.49-34.66L219.49-34.66L219.49-34.66Q218.35-33.59 217.44-31.54ZM266.53-26.68L266.53-26.68L266.53-26.68Q267.60-29.49 267.60-31.92L267.60-31.92L267.60-31.92Q267.60-36.40 263.95-36.40L263.95-36.40L263.95-36.40Q262.05-36.40 260.49-34.69L260.49-34.69L260.49-34.69Q258.93-32.98 258.93-30.86L258.93-30.86L258.93-30.86Q258.93-29.34 260.15-28.12L260.15-28.12L260.15-28.12Q261.90-26.45 266.38-23.71L266.38-23.71L266.38-23.71Q270.86-20.98 272.57-18.73L272.57-18.73L272.57-18.73Q274.28-16.49 274.28-13.41L274.28-13.41L274.28-13.41Q274.28-10.34 272.80-7.52L272.80-7.52L272.80-7.52Q271.32-4.71 268.66-2.74L268.66-2.74L268.66-2.74Q262.96 1.52 253.84 1.52L253.84 1.52L253.84 1.52Q248.90 1.52 245.10-1.06L245.10-1.06L245.10-1.06Q241.30-3.57 241.30-6.54L241.30-6.54L241.30-6.54Q241.30-9.50 243.47-11.25L243.47-11.25L243.47-11.25Q245.63-13.00 248.82-13.00L248.82-13.00L248.82-13.00Q252.02-13.00 253.99-11.78L253.99-11.78L253.99-11.78Q253.00-9.27 253.00-7.60L253.00-7.60L253.00-7.60Q253.00-2.58 257.26-2.58L257.26-2.58L257.26-2.58Q259.08-2.58 260.30-3.72L260.30-3.72L260.30-3.72Q261.52-4.86 261.52-6.84L261.52-6.84L261.52-6.84Q261.52-10.72 254.98-14.82L254.98-14.82L254.98-14.82Q249.66-18.32 248.44-19.68L248.44-19.68L248.44-19.68Q246.39-22.12 246.39-25.16L246.39-25.16L246.39-25.16Q246.39-28.20 247.84-31.08L247.84-31.08L247.84-31.08Q249.28-33.97 251.94-36.02L251.94-36.02L251.94-36.02Q257.49-40.28 267.14-40.28L267.14-40.28L267.14-40.28Q272.08-40.28 275.01-38.30L275.01-38.30L275.01-38.30Q277.93-36.33 277.93-32.98L277.93-32.98L277.93-32.98Q277.93-29.64 275.92-27.74L275.92-27.74L275.92-27.74Q273.90-25.84 270.26-25.84L270.26-25.84L270.26-25.84Q267.75-25.84 266.53-26.68ZM281.96-7.60L281.96-7.60L281.96-7.60Q281.96-9.65 283.02-14.82L283.02-14.82L287.05-35.34L282.57-35.34L282.87-37.62L282.87-37.62Q291.99-40.36 300.81-47.04L300.81-47.04L304.46-47.04L302.63-38.76L308.56-38.76L307.88-35.34L302.02-35.34L298.15-14.82L298.15-14.82Q297.16-10.11 297.16-8.51L297.16-8.51L297.16-8.51Q297.16-4.86 300.35-4.10L300.35-4.10L300.35-4.10Q299.59-1.52 296.86 0L296.86 0L296.86 0Q294.12 1.52 290.24 1.52L290.24 1.52L290.24 1.52Q286.37 1.52 284.16-0.91L284.16-0.91L284.16-0.91Q281.96-3.34 281.96-7.60ZM311.18-2.28L311.18-2.28L311.18-2.28Q309.40-4.26 308.60-7.37L308.60-7.37L308.60-7.37Q307.80-10.49 307.80-15.58L307.80-15.58L307.80-15.58Q307.80-20.67 309.55-25.31L309.55-25.31L309.55-25.31Q311.30-29.94 314.49-33.29L314.49-33.29L314.49-33.29Q321.02-40.28 331.82-40.28L331.82-40.28L331.82-40.28Q335.69-40.28 338.50-38.99L338.50-38.99L351.50-40.28L345.88-10.64L345.88-10.64Q345.65-9.73 345.65-8.06L345.65-8.06L345.65-8.06Q345.65-6.38 346.67-5.32L346.67-5.32L346.67-5.32Q347.70-4.26 349.22-4.10L349.22-4.10L349.22-4.10Q348.46-1.52 345.69 0L345.69 0L345.69 0Q342.91 1.52 339.80 1.52L339.80 1.52L339.80 1.52Q336.68 1.52 334.59 0.34L334.59 0.34L334.59 0.34Q332.50-0.84 331.89-2.81L331.89-2.81L331.89-2.81Q330.68-0.91 328.09 0.30L328.09 0.30L328.09 0.30Q325.51 1.52 322.05 1.52L322.05 1.52L322.05 1.52Q318.59 1.52 315.78 0.61L315.78 0.61L315.78 0.61Q312.97-0.30 311.18-2.28ZM327.22-33.14L327.22-33.14L327.22-33.14Q326.34-31.77 325.58-29.45L325.58-29.45L325.58-29.45Q324.82-27.13 323.57-20.94L323.57-20.94L323.57-20.94Q322.32-14.74 322.32-10.34L322.32-10.34L322.32-10.34Q322.32-5.93 323-4.64L323-4.64L323-4.64Q323.68-3.34 324.90-3.34L324.90-3.34L324.90-3.34Q327.33-3.34 329.12-5.66L329.12-5.66L329.12-5.66Q330.90-7.98 331.59-12.08L331.59-12.08L335.62-34.35L335.62-34.35Q334.02-35.72 332.16-35.72L332.16-35.72L332.16-35.72Q330.30-35.72 329.19-35.11L329.19-35.11L329.19-35.11Q328.09-34.50 327.22-33.14ZM356.82-7.60L356.82-7.60L356.82-7.60Q356.82-9.65 357.88-14.82L357.88-14.82L361.91-35.34L357.43-35.34L357.73-37.62L357.73-37.62Q366.85-40.36 375.67-47.04L375.67-47.04L379.32-47.04L377.49-38.76L383.42-38.76L382.74-35.34L376.88-35.34L373.01-14.82L373.01-14.82Q372.02-10.11 372.02-8.51L372.02-8.51L372.02-8.51Q372.02-4.86 375.21-4.10L375.21-4.10L375.21-4.10Q374.45-1.52 371.72 0L371.72 0L371.72 0Q368.98 1.52 365.10 1.52L365.10 1.52L365.10 1.52Q361.23 1.52 359.02-0.91L359.02-0.91L359.02-0.91Q356.82-3.34 356.82-7.60ZM448.02-31.54L448.02-31.54L448.02-31.54Q448.02 0.84 412.91 0.84L412.91 0.84L412.91 0.84Q407.28 0.84 398.01-0.53L398.01-0.53L406.52-45.45L406.52-45.45Q407.13-48.49 407.51-50.24L407.51-50.24L407.51-50.24Q419.06-51.07 424.19-51.07L424.19-51.07L424.19-51.07Q429.32-51.07 434.04-50.01L434.04-50.01L434.04-50.01Q438.75-48.94 441.86-46.59L441.86-46.59L441.86-46.59Q448.02-41.95 448.02-31.54ZM432.36-34.35L432.36-34.35L432.36-34.35Q432.36-45.68 424.23-45.68L424.23-45.68L423.47-45.68L423.47-45.68Q423.09-45.68 422.71-45.60L422.71-45.60L414.88-4.79L414.88-4.79Q415.19-4.64 415.49-4.64L415.49-4.64L416.10-4.64L416.10-4.64Q418.91-4.64 421.84-6.38L421.84-6.38L421.84-6.38Q424.76-8.13 427.04-11.70L427.04-11.70L427.04-11.70Q432.36-19.99 432.36-34.35ZM455.20-2.28L455.20-2.28L455.20-2.28Q453.42-4.26 452.62-7.37L452.62-7.37L452.62-7.37Q451.82-10.49 451.82-15.58L451.82-15.58L451.82-15.58Q451.82-20.67 453.57-25.31L453.57-25.31L453.57-25.31Q455.32-29.94 458.51-33.29L458.51-33.29L458.51-33.29Q465.04-40.28 475.84-40.28L475.84-40.28L475.84-40.28Q479.71-40.28 482.52-38.99L482.52-38.99L495.52-40.28L489.90-10.64L489.90-10.64Q489.67-9.73 489.67-8.06L489.67-8.06L489.67-8.06Q489.67-6.38 490.69-5.32L490.69-5.32L490.69-5.32Q491.72-4.26 493.24-4.10L493.24-4.10L493.24-4.10Q492.48-1.52 489.71 0L489.71 0L489.71 0Q486.93 1.52 483.82 1.52L483.82 1.52L483.82 1.52Q480.70 1.52 478.61 0.34L478.61 0.34L478.61 0.34Q476.52-0.84 475.91-2.81L475.91-2.81L475.91-2.81Q474.70-0.91 472.11 0.30L472.11 0.30L472.11 0.30Q469.53 1.52 466.07 1.52L466.07 1.52L466.07 1.52Q462.61 1.52 459.80 0.61L459.80 0.61L459.80 0.61Q456.99-0.30 455.20-2.28ZM471.24-33.14L471.24-33.14L471.24-33.14Q470.36-31.77 469.60-29.45L469.60-29.45L469.60-29.45Q468.84-27.13 467.59-20.94L467.59-20.94L467.59-20.94Q466.34-14.74 466.34-10.34L466.34-10.34L466.34-10.34Q466.34-5.93 467.02-4.64L467.02-4.64L467.02-4.64Q467.70-3.34 468.92-3.34L468.92-3.34L468.92-3.34Q471.35-3.34 473.14-5.66L473.14-5.66L473.14-5.66Q474.92-7.98 475.61-12.08L475.61-12.08L479.64-34.35L479.64-34.35Q478.04-35.72 476.18-35.72L476.18-35.72L476.18-35.72Q474.32-35.72 473.21-35.11L473.21-35.11L473.21-35.11Q472.11-34.50 471.24-33.14ZM522.35-26.68L522.35-26.68L522.35-26.68Q523.41-29.49 523.41-31.92L523.41-31.92L523.41-31.92Q523.41-36.40 519.76-36.40L519.76-36.40L519.76-36.40Q517.86-36.40 516.31-34.69L516.31-34.69L516.31-34.69Q514.75-32.98 514.75-30.86L514.75-30.86L514.75-30.86Q514.75-29.34 515.96-28.12L515.96-28.12L515.96-28.12Q517.71-26.45 522.20-23.71L522.20-23.71L522.20-23.71Q526.68-20.98 528.39-18.73L528.39-18.73L528.39-18.73Q530.10-16.49 530.10-13.41L530.10-13.41L530.10-13.41Q530.10-10.34 528.62-7.52L528.62-7.52L528.62-7.52Q527.14-4.71 524.48-2.74L524.48-2.74L524.48-2.74Q518.78 1.52 509.66 1.52L509.66 1.52L509.66 1.52Q504.72 1.52 500.92-1.06L500.92-1.06L500.92-1.06Q497.12-3.57 497.12-6.54L497.12-6.54L497.12-6.54Q497.12-9.50 499.28-11.25L499.28-11.25L499.28-11.25Q501.45-13.00 504.64-13.00L504.64-13.00L504.64-13.00Q507.83-13.00 509.81-11.78L509.81-11.78L509.81-11.78Q508.82-9.27 508.82-7.60L508.82-7.60L508.82-7.60Q508.82-2.58 513.08-2.58L513.08-2.58L513.08-2.58Q514.90-2.58 516.12-3.72L516.12-3.72L516.12-3.72Q517.33-4.86 517.33-6.84L517.33-6.84L517.33-6.84Q517.33-10.72 510.80-14.82L510.80-14.82L510.80-14.82Q505.48-18.32 504.26-19.68L504.26-19.68L504.26-19.68Q502.21-22.12 502.21-25.16L502.21-25.16L502.21-25.16Q502.21-28.20 503.65-31.08L503.65-31.08L503.65-31.08Q505.10-33.97 507.76-36.02L507.76-36.02L507.76-36.02Q513.30-40.28 522.96-40.28L522.96-40.28L522.96-40.28Q527.90-40.28 530.82-38.30L530.82-38.30L530.82-38.30Q533.75-36.33 533.75-32.98L533.75-32.98L533.75-32.98Q533.75-29.64 531.73-27.74L531.73-27.74L531.73-27.74Q529.72-25.84 526.07-25.84L526.07-25.84L526.07-25.84Q523.56-25.84 522.35-26.68ZM574.79-8.44L574.79-8.44L574.79-8.44Q574.79-5.09 578.21-4.10L578.21-4.10L578.21-4.10Q577.37-1.29 574.10 0.23L574.10 0.23L574.10 0.23Q571.37 1.52 568.37 1.52L568.37 1.52L568.37 1.52Q565.36 1.52 563.81 0.72L563.81 0.72L563.81 0.72Q562.25-0.08 561.41-1.37L561.41-1.37L561.41-1.37Q560.04-3.34 560.04-7.07L560.04-7.07L560.04-7.07Q560.04-9.27 561.26-15.35L561.26-15.35L562.32-21.13L562.32-21.13Q563.62-27.74 563.62-30.17L563.62-30.17L563.62-30.17Q563.62-34.43 561.26-34.43L561.26-34.43L561.26-34.43Q558.30-34.43 556.40-30.10L556.40-30.10L556.40-30.10Q555.64-28.42 555.10-25.92L555.10-25.92L549.94 0L534.66 1.52L545.38-53.20L560.65-54.72L560.04-51.68L560.04-51.68Q557.92-39.98 556.09-36.02L556.09-36.02L556.09-36.02Q560.35-40.28 568.18-40.28L568.18-40.28L568.18-40.28Q576.46-40.28 577.98-34.81L577.98-34.81L577.98-34.81Q578.51-33.06 578.51-31.54L578.51-31.54L578.51-31.54Q578.51-30.02 578.40-28.84L578.40-28.84L578.40-28.84Q578.28-27.66 577.90-25.54L577.90-25.54L576.92-20.06L575.17-11.48L575.17-11.48Q574.79-9.73 574.79-8.44ZM583.38-3.65L583.38-3.65L592.80-53.20L608.23-54.72L605.87-43.09L605.87-43.09Q605.04-39.52 603.97-37.01L603.97-37.01L603.97-37.01Q605.64-39.14 609.29-39.98L609.29-39.98L609.29-39.98Q610.36-40.28 611.65-40.28L611.65-40.28L611.65-40.28Q618.72-40.28 622.59-35.99L622.59-35.99L622.59-35.99Q626.47-31.69 626.47-23.41L626.47-23.41L626.47-23.41Q626.47-12.62 620.31-5.85L620.31-5.85L620.31-5.85Q613.70 1.52 601.69 1.52L601.69 1.52L601.69 1.52Q593.41 1.52 587.18-1.22L587.18-1.22L587.18-1.22Q584.97-2.20 583.38-3.65ZM602.68-26.60L598.65-4.33L598.65-4.33Q600.25-2.96 602.22-2.96L602.22-2.96L602.22-2.96Q604.20-2.96 605.34-3.72L605.34-3.72L605.34-3.72Q606.48-4.48 607.32-6.00L607.32-6.00L607.32-6.00Q609.60-10.11 611.42-22.65L611.42-22.65L611.42-22.65Q611.95-26.22 611.95-29.79L611.95-29.79L611.95-29.79Q611.95-33.36 611.15-34.50L611.15-34.50L611.15-34.50Q610.36-35.64 608.84-35.64L608.84-35.64L608.84-35.64Q604.20-35.64 602.68-26.60L602.68-26.60ZM647.60 1.52L647.60 1.52L647.60 1.52Q630.88 1.52 630.88-14.21L630.88-14.21L630.88-14.21Q630.88-25.38 637.03-32.60L637.03-32.60L637.03-32.60Q643.57-40.28 654.89-40.28L654.89-40.28L654.89-40.28Q663.10-40.28 667.28-36.48L667.28-36.48L667.28-36.48Q671.46-32.68 671.46-24.70L671.46-24.70L671.46-24.70Q671.46-12.54 664.92-5.47L664.92-5.47L664.92-5.47Q658.54 1.52 647.60 1.52ZM649.57-31.54L649.57-31.54L649.57-31.54Q648.66-29.49 647.94-26.41L647.94-26.41L647.94-26.41Q647.22-23.33 646.30-18.47L646.30-18.47L646.30-18.47Q645.39-13.60 645.39-7.60L645.39-7.60L645.39-7.60Q645.39-5.62 646.04-4.33L646.04-4.33L646.04-4.33Q646.68-3.04 648.43-3.04L648.43-3.04L648.43-3.04Q650.18-3.04 651.28-3.88L651.28-3.88L651.28-3.88Q652.38-4.71 653.22-6.69L653.22-6.69L653.22-6.69Q654.74-10.18 655.96-16.68L655.96-16.68L655.96-16.68Q657.17-23.18 657.29-25.99L657.29-25.99L657.29-25.99Q657.40-28.80 657.40-30.89L657.40-30.89L657.40-30.89Q657.40-32.98 656.79-34.35L656.79-34.35L656.79-34.35Q656.18-35.72 654.47-35.72L654.47-35.72L654.47-35.72Q652.76-35.72 651.62-34.66L651.62-34.66L651.62-34.66Q650.48-33.59 649.57-31.54ZM679.25-2.28L679.25-2.28L679.25-2.28Q677.46-4.26 676.67-7.37L676.67-7.37L676.67-7.37Q675.87-10.49 675.87-15.58L675.87-15.58L675.87-15.58Q675.87-20.67 677.62-25.31L677.62-25.31L677.62-25.31Q679.36-29.94 682.56-33.29L682.56-33.29L682.56-33.29Q689.09-40.28 699.88-40.28L699.88-40.28L699.88-40.28Q703.76-40.28 706.57-38.99L706.57-38.99L719.57-40.28L713.94-10.64L713.94-10.64Q713.72-9.73 713.72-8.06L713.72-8.06L713.72-8.06Q713.72-6.38 714.74-5.32L714.74-5.32L714.74-5.32Q715.77-4.26 717.29-4.10L717.29-4.10L717.29-4.10Q716.53-1.52 713.75 0L713.75 0L713.75 0Q710.98 1.52 707.86 1.52L707.86 1.52L707.86 1.52Q704.75 1.52 702.66 0.34L702.66 0.34L702.66 0.34Q700.57-0.84 699.96-2.81L699.96-2.81L699.96-2.81Q698.74-0.91 696.16 0.30L696.16 0.30L696.16 0.30Q693.58 1.52 690.12 1.52L690.12 1.52L690.12 1.52Q686.66 1.52 683.85 0.61L683.85 0.61L683.85 0.61Q681.04-0.30 679.25-2.28ZM695.29-33.14L695.29-33.14L695.29-33.14Q694.41-31.77 693.65-29.45L693.65-29.45L693.65-29.45Q692.89-27.13 691.64-20.94L691.64-20.94L691.64-20.94Q690.38-14.74 690.38-10.34L690.38-10.34L690.38-10.34Q690.38-5.93 691.07-4.64L691.07-4.64L691.07-4.64Q691.75-3.34 692.97-3.34L692.97-3.34L692.97-3.34Q695.40-3.34 697.19-5.66L697.19-5.66L697.19-5.66Q698.97-7.98 699.66-12.08L699.66-12.08L703.68-34.35L703.68-34.35Q702.09-35.72 700.23-35.72L700.23-35.72L700.23-35.72Q698.36-35.72 697.26-35.11L697.26-35.11L697.26-35.11Q696.16-34.50 695.29-33.14ZM747.46-21.36L747.46-21.36L747.46-21.36Q750.20-26.22 750.20-31.16L750.20-31.16L750.20-31.16Q750.20-34.43 747.84-34.43L747.84-34.43L747.84-34.43Q746.02-34.43 744.12-31.31L744.12-31.31L744.12-31.31Q742.14-28.20 741.53-24.17L741.53-24.17L737.58 0L721.85 1.52L729.60-38.76L742.14-40.28L740.77-32.60L740.77-32.60Q744.50-40.28 752.86-40.28L752.86-40.28L752.86-40.28Q757.26-40.28 759.66-38L759.66-38L759.66-38Q762.05-35.72 762.05-31.05L762.05-31.05L762.05-31.05Q762.05-26.37 758.97-23.41L758.97-23.41L758.97-23.41Q755.90-20.44 750.65-20.44L750.65-20.44L750.65-20.44Q748.37-20.44 747.46-21.36ZM787.21-40.28L787.21-40.28L787.21-40.28Q789.94-40.28 792.07-39.67L792.07-39.67L792.07-39.67Q792.15-39.98 792.30-40.81L792.30-40.81L792.68-43.17L792.68-43.17Q792.98-44.69 793.44-47.20L793.44-47.20L794.66-53.20L809.78-54.72L801.34-10.64L801.34-10.64Q801.27-10.18 801.27-9.42L801.27-9.42L801.27-8.21L801.27-8.21Q801.27-6.54 802.10-5.28L802.10-5.28L802.10-5.28Q802.94-4.03 804.31-4.03L804.31-4.03L804.31-4.03Q802.79-0.46 798.15 1.06L798.15 1.06L798.15 1.06Q796.56 1.52 794.31 1.52L794.31 1.52L794.31 1.52Q792.07 1.52 790.02 0.34L790.02 0.34L790.02 0.34Q787.97-0.84 787.36-2.81L787.36-2.81L787.36-2.81Q786.14-0.84 783.71 0.34L783.71 0.34L783.71 0.34Q781.28 1.52 777.75 1.52L777.75 1.52L777.75 1.52Q774.21 1.52 771.29 0.61L771.29 0.61L771.29 0.61Q768.36-0.30 766.54-2.28L766.54-2.28L766.54-2.28Q763.19-6.16 763.19-14.97L763.19-14.97L763.19-14.97Q763.19-26.37 769.88-33.29L769.88-33.29L769.88-33.29Q776.57-40.28 787.21-40.28ZM786.68-35.72L786.68-35.72L786.68-35.72Q783.86-35.72 782.34-32.68L782.34-32.68L782.34-32.68Q780.82-29.64 779.27-22.12L779.27-22.12L779.27-22.12Q777.71-14.59 777.71-7.83L777.71-7.83L777.71-7.83Q777.71-3.19 780.44-3.19L780.44-3.19L780.44-3.19Q782.88-3.19 784.59-5.62L784.59-5.62L784.59-5.62Q786.30-8.06 786.98-12.08L786.98-12.08L791.08-34.35L791.08-34.35Q789.49-35.72 786.68-35.72Z" fill="none" stroke="#daffff" stroke-width="0.4"></path></g></g><style>text {
  font-size: 64px;
  font-family: Arial Black;
  dominant-baseline: central;
  text-anchor: middle;
}</style></svg>