<svg width="841.37158203125px" height="106.39999999999999px" xmlns="http://www.w3.org/2000/svg" viewBox="-170.685791015625 21.800000000000004 841.37158203125 106.39999999999999" style="background: rgba(0, 0, 0, 0);" preserveAspectRatio="xMidYMid"><defs><filter id="editing-neon" x="-100%" y="-100%" width="300%" height="300%"><feFlood flood-color="rgba(0%,31.285714285714228%,100%,0.212)" result="flood"></feFlood><feComposite operator="in" in="flood" in2="SourceAlpha" result="color"></feComposite><feFlood flood-color="rgba(0%,31.285714285714228%,100%,0.212)" result="flood2"></feFlood><feComposite operator="in" in="flood2" in2="SourceAlpha" result="color2"></feComposite><feMorphology operator="dilate" radius="2" in="color" result="dilate"></feMorphology><feGaussianBlur stdDeviation="6" in="color" result="blur1"></feGaussianBlur><feGaussianBlur stdDeviation="2.5" in="color" result="blur2"></feGaussianBlur><feGaussianBlur stdDeviation="1" in="SourceAlpha" result="blur3"></feGaussianBlur><feGaussianBlur stdDeviation="6" in="dilate" result="blur4"></feGaussianBlur><feConvolveMatrix in="color2" result="conv" order="3,3" divisor="1" kernelMatrix="1 1 1  1 1 1  1 1 1"></feConvolveMatrix><feMerge><feMergeNode in="blur1"></feMergeNode><feMergeNode in="blur2"></feMergeNode><feMergeNode in="blur4"></feMergeNode><feMergeNode in="blur3"></feMergeNode><feMergeNode in="blur3"></feMergeNode><feMergeNode in="blur3"></feMergeNode><feMergeNode in="blur3"></feMergeNode><feMergeNode in="conv"></feMergeNode><feMergeNode in="SourceGraphic"></feMergeNode></feMerge></filter></defs><g filter="url(#editing-neon)"><g transform="translate(-53.122671604156494, 94.9800033569336)"><path d="M5.24-26.30L5.24-26.30L5.24-26.30Q3.40-27.70 3.40-30.70L3.40-30.70L3.40-30.70Q3.40-33.70 5.37-35.26L5.37-35.26L5.37-35.26Q7.34-36.83 10.75-36.83L10.75-36.83L10.75-36.83Q12.91-36.83 18.04-36.07L18.04-36.07L21.71-35.53L21.71-35.53Q23.54-35.32 25.46-35.32L25.46-35.32L25.46-35.32Q27.38-35.32 28.67-36.13L28.67-36.13L28.67-36.13Q30.62-34.40 30.62-31.91L30.62-31.91L30.62-31.91Q30.62-29.43 28.40-27.65L28.40-27.65L28.40-27.65Q26.14-25.76 23.22-25.76L23.22-25.76L23.22-25.76Q21.82-25.76 19.55-26.14L19.55-26.14L19.55-26.14Q16.90-17.82 16.90-12.04L16.90-12.04L16.90-12.04Q16.90-6.26 19.82-3.24L19.82-3.24L19.82-3.24Q18.47-0.81 16.47 0.14L16.47 0.14L16.47 0.14Q14.47 1.08 11.47 1.08L11.47 1.08L11.47 1.08Q8.48 1.08 6.62-0.57L6.62-0.57L6.62-0.57Q4.75-2.21 4.75-5.62L4.75-5.62L4.75-5.62Q4.75-9.56 6.91-16.04L6.91-16.04L6.91-16.04Q9.07-22.46 12.31-27.38L12.31-27.38L12.31-27.38Q10.75-27.54 9.13-27.54L9.13-27.54L9.13-27.54Q5.78-27.54 5.24-26.30ZM56.05-5.99L56.05-5.99L56.05-5.99Q56.05-3.62 58.48-2.92L58.48-2.92L58.48-2.92Q57.89-0.92 55.57 0.16L55.57 0.16L55.57 0.16Q53.62 1.08 51.49 1.08L51.49 1.08L51.49 1.08Q49.36 1.08 48.25 0.51L48.25 0.51L48.25 0.51Q47.14-0.05 46.55-0.97L46.55-0.97L46.55-0.97Q45.58-2.38 45.58-5.02L45.58-5.02L45.58-5.02Q45.58-6.59 46.44-10.91L46.44-10.91L47.20-15.01L47.20-15.01Q48.11-19.71 48.11-21.44L48.11-21.44L48.11-21.44Q48.11-24.46 46.44-24.46L46.44-24.46L46.44-24.46Q44.33-24.46 42.98-21.38L42.98-21.38L42.98-21.38Q42.44-20.20 42.07-18.41L42.07-18.41L38.39 0L27.54 1.08L35.15-37.80L46.01-38.88L45.58-36.72L45.58-36.72Q44.06-28.40 42.77-25.60L42.77-25.60L42.77-25.60Q45.79-28.62 51.35-28.62L51.35-28.62L51.35-28.62Q57.24-28.62 58.32-24.73L58.32-24.73L58.32-24.73Q58.70-23.49 58.70-22.41L58.70-22.41L58.70-22.41Q58.70-21.33 58.62-20.49L58.62-20.49L58.62-20.49Q58.54-19.66 58.27-18.14L58.27-18.14L57.56-14.26L56.32-8.15L56.32-8.15Q56.05-6.91 56.05-5.99ZM84.73-9.13L84.73-9.13L84.73-9.13Q86.08-8.21 86.08-6.18L86.08-6.18L86.08-6.18Q86.08-4.16 85.05-2.86L85.05-2.86L85.05-2.86Q84.02-1.57 82.35-0.70L82.35-0.70L82.35-0.70Q78.89 1.08 75.17 1.08L75.17 1.08L75.17 1.08Q71.44 1.08 69.25 0.27L69.25 0.27L69.25 0.27Q67.07-0.54 65.61-2.05L65.61-2.05L65.61-2.05Q62.75-4.91 62.75-10.15L62.75-10.15L62.75-10.15Q62.75-18.31 67.18-23.27L67.18-23.27L67.18-23.27Q71.93-28.62 80.19-28.62L80.19-28.62L80.19-28.62Q85.32-28.62 87.86-26.46L87.86-26.46L87.86-26.46Q89.75-24.84 89.75-22.19L89.75-22.19L89.75-22.19Q89.75-12.69 73.33-12.69L73.33-12.69L73.33-12.69Q73.12-11.29 73.12-10.10L73.12-10.10L73.12-10.10Q73.12-7.61 74.22-6.67L74.22-6.67L74.22-6.67Q75.33-5.72 77.38-5.72L77.38-5.72L77.38-5.72Q79.43-5.72 81.62-6.67L81.62-6.67L81.62-6.67Q83.81-7.61 84.73-9.13ZM73.71-15.01L73.71-15.01L73.71-15.01Q77.54-15.01 79.76-17.39L79.76-17.39L79.76-17.39Q81.97-19.66 81.97-23.27L81.97-23.27L81.97-23.27Q81.97-24.52 81.51-25.19L81.51-25.19L81.51-25.19Q81.05-25.87 80.14-25.87L80.14-25.87L80.14-25.87Q79.22-25.87 78.44-25.52L78.44-25.52L78.44-25.52Q77.65-25.16 76.84-23.98L76.84-23.98L76.84-23.98Q74.84-21.28 73.71-15.01ZM108.49-15.17L108.49-15.17L108.49-15.17Q110.43-18.63 110.43-22.14L110.43-22.14L110.43-22.14Q110.43-24.46 108.76-24.46L108.76-24.46L108.76-24.46Q107.46-24.46 106.11-22.25L106.11-22.25L106.11-22.25Q104.71-20.03 104.27-17.17L104.27-17.17L101.47 0L90.29 1.08L95.80-27.54L104.71-28.62L103.73-23.17L103.73-23.17Q106.38-28.62 112.32-28.62L112.32-28.62L112.32-28.62Q115.45-28.62 117.15-27L117.15-27L117.15-27Q118.85-25.38 118.85-22.06L118.85-22.06L118.85-22.06Q118.85-18.74 116.67-16.63L116.67-16.63L116.67-16.63Q114.48-14.53 110.75-14.53L110.75-14.53L110.75-14.53Q109.13-14.53 108.49-15.17ZM158.60 1.08L158.60 1.08L158.60 1.08Q152.06 1.08 152.06-4.00L152.06-4.00L152.06-4.00Q152.06-6.21 153.01-10.50L153.01-10.50L153.01-10.50Q153.95-14.80 154.28-16.52L154.28-16.52L154.28-16.52Q155.03-20.47 155.03-21.71L155.03-21.71L155.03-21.71Q155.03-24.46 152.98-24.46L152.98-24.46L152.98-24.46Q151.63-24.46 150.34-22.60L150.34-22.60L150.34-22.60Q149.04-20.74 148.45-17.01L148.45-17.01L145.10 0L134.57 1.08L137.48-13.61L137.48-13.61Q137.97-16.04 138.40-18.79L138.40-18.79L138.40-18.79Q138.83-21.55 138.83-21.98L138.83-21.98L138.83-21.98Q138.83-24.46 137.00-24.46L137.00-24.46L137.00-24.46Q135.76-24.46 134.41-22.63L134.41-22.63L134.41-22.63Q133.06-20.79 132.30-17.01L132.30-17.01L129.01 0L118.37 1.08L124.04-27.54L132.84-28.62L131.92-23.17L131.92-23.17Q133.33-26.08 135.92-27.35L135.92-27.35L135.92-27.35Q138.51-28.62 142.56-28.62L142.56-28.62L142.56-28.62Q144.88-28.62 146.39-27.49L146.39-27.49L146.39-27.49Q147.91-26.35 148.39-24.52L148.39-24.52L148.39-24.52Q149.31-26.41 151.66-27.51L151.66-27.51L151.66-27.51Q154.01-28.62 156.90-28.62L156.90-28.62L156.90-28.62Q159.79-28.62 161.22-28.00L161.22-28.00L161.22-28.00Q162.65-27.38 163.51-26.35L163.51-26.35L163.51-26.35Q164.97-24.46 164.97-21.01L164.97-21.01L164.97-21.01Q164.97-17.60 163.51-10.53L163.51-10.53L163.51-10.53Q162.76-7.07 162.76-5.80L162.76-5.80L162.76-5.80Q162.76-4.54 163.49-3.78L163.49-3.78L163.49-3.78Q164.21-3.02 165.29-2.92L165.29-2.92L165.29-2.92Q164.75-1.08 162.89 0L162.89 0L162.89 0Q161.03 1.08 158.60 1.08ZM181.22 1.08L181.22 1.08L181.22 1.08Q169.34 1.08 169.34-10.10L169.34-10.10L169.34-10.10Q169.34-18.04 173.72-23.17L173.72-23.17L173.72-23.17Q178.36-28.62 186.41-28.62L186.41-28.62L186.41-28.62Q192.24-28.62 195.21-25.92L195.21-25.92L195.21-25.92Q198.18-23.22 198.18-17.55L198.18-17.55L198.18-17.55Q198.18-8.91 193.54-3.89L193.54-3.89L193.54-3.89Q189 1.08 181.22 1.08ZM182.63-22.41L182.63-22.41L182.63-22.41Q181.98-20.95 181.47-18.77L181.47-18.77L181.47-18.77Q180.95-16.58 180.31-13.12L180.31-13.12L180.31-13.12Q179.66-9.67 179.66-5.40L179.66-5.40L179.66-5.40Q179.66-4.00 180.12-3.08L180.12-3.08L180.12-3.08Q180.58-2.16 181.82-2.16L181.82-2.16L181.82-2.16Q183.06-2.16 183.84-2.75L183.84-2.75L183.84-2.75Q184.63-3.35 185.22-4.75L185.22-4.75L185.22-4.75Q186.30-7.24 187.16-11.85L187.16-11.85L187.16-11.85Q188.03-16.47 188.11-18.47L188.11-18.47L188.11-18.47Q188.19-20.47 188.19-21.95L188.19-21.95L188.19-21.95Q188.19-23.44 187.76-24.41L187.76-24.41L187.76-24.41Q187.33-25.38 186.11-25.38L186.11-25.38L186.11-25.38Q184.90-25.38 184.09-24.62L184.09-24.62L184.09-24.62Q183.28-23.87 182.63-22.41ZM217.51-18.95L217.51-18.95L217.51-18.95Q218.27-20.95 218.27-22.68L218.27-22.68L218.27-22.68Q218.27-25.87 215.68-25.87L215.68-25.87L215.68-25.87Q214.33-25.87 213.22-24.65L213.22-24.65L213.22-24.65Q212.11-23.44 212.11-21.92L212.11-21.92L212.11-21.92Q212.11-20.84 212.98-19.98L212.98-19.98L212.98-19.98Q214.22-18.79 217.40-16.85L217.40-16.85L217.40-16.85Q220.59-14.90 221.80-13.31L221.80-13.31L221.80-13.31Q223.02-11.72 223.02-9.53L223.02-9.53L223.02-9.53Q223.02-7.34 221.97-5.35L221.97-5.35L221.97-5.35Q220.91-3.35 219.02-1.94L219.02-1.94L219.02-1.94Q214.97 1.08 208.49 1.08L208.49 1.08L208.49 1.08Q204.98 1.08 202.28-0.76L202.28-0.76L202.28-0.76Q199.58-2.54 199.58-4.64L199.58-4.64L199.58-4.64Q199.58-6.75 201.12-7.99L201.12-7.99L201.12-7.99Q202.66-9.23 204.93-9.23L204.93-9.23L204.93-9.23Q207.20-9.23 208.60-8.37L208.60-8.37L208.60-8.37Q207.90-6.59 207.90-5.40L207.90-5.40L207.90-5.40Q207.90-1.84 210.92-1.84L210.92-1.84L210.92-1.84Q212.22-1.84 213.08-2.65L213.08-2.65L213.08-2.65Q213.95-3.46 213.95-4.86L213.95-4.86L213.95-4.86Q213.95-7.61 209.30-10.53L209.30-10.53L209.30-10.53Q205.52-13.01 204.66-13.99L204.66-13.99L204.66-13.99Q203.20-15.71 203.20-17.87L203.20-17.87L203.20-17.87Q203.20-20.03 204.23-22.09L204.23-22.09L204.23-22.09Q205.25-24.14 207.14-25.60L207.14-25.60L207.14-25.60Q211.09-28.62 217.94-28.62L217.94-28.62L217.94-28.62Q221.45-28.62 223.53-27.22L223.53-27.22L223.53-27.22Q225.61-25.81 225.61-23.44L225.61-23.44L225.61-23.44Q225.61-21.06 224.18-19.71L224.18-19.71L224.18-19.71Q222.75-18.36 220.16-18.36L220.16-18.36L220.16-18.36Q218.38-18.36 217.51-18.95ZM228.47-5.40L228.47-5.40L228.47-5.40Q228.47-6.86 229.23-10.53L229.23-10.53L232.09-25.11L228.91-25.11L229.12-26.73L229.12-26.73Q235.60-28.67 241.87-33.43L241.87-33.43L244.46-33.43L243.16-27.54L247.37-27.54L246.89-25.11L242.73-25.11L239.98-10.53L239.98-10.53Q239.27-7.18 239.27-6.05L239.27-6.05L239.27-6.05Q239.27-3.46 241.54-2.92L241.54-2.92L241.54-2.92Q241.00-1.08 239.06 0L239.06 0L239.06 0Q237.11 1.08 234.36 1.08L234.36 1.08L234.36 1.08Q231.61 1.08 230.04-0.65L230.04-0.65L230.04-0.65Q228.47-2.38 228.47-5.40ZM249.24-1.62L249.24-1.62L249.24-1.62Q247.97-3.02 247.40-5.24L247.40-5.24L247.40-5.24Q246.83-7.45 246.83-11.07L246.83-11.07L246.83-11.07Q246.83-14.69 248.08-17.98L248.08-17.98L248.08-17.98Q249.32-21.28 251.59-23.65L251.59-23.65L251.59-23.65Q256.23-28.62 263.90-28.62L263.90-28.62L263.90-28.62Q266.65-28.62 268.65-27.70L268.65-27.70L277.88-28.62L273.89-7.56L273.89-7.56Q273.73-6.91 273.73-5.72L273.73-5.72L273.73-5.72Q273.73-4.54 274.45-3.78L274.45-3.78L274.45-3.78Q275.18-3.02 276.26-2.92L276.26-2.92L276.26-2.92Q275.72-1.08 273.75 0L273.75 0L273.75 0Q271.78 1.08 269.57 1.08L269.57 1.08L269.57 1.08Q267.35 1.08 265.87 0.24L265.87 0.24L265.87 0.24Q264.38-0.59 263.95-2.00L263.95-2.00L263.95-2.00Q263.09-0.65 261.25 0.22L261.25 0.22L261.25 0.22Q259.42 1.08 256.96 1.08L256.96 1.08L256.96 1.08Q254.50 1.08 252.50 0.43L252.50 0.43L252.50 0.43Q250.51-0.22 249.24-1.62ZM260.63-23.54L260.63-23.54L260.63-23.54Q260.01-22.57 259.47-20.93L259.47-20.93L259.47-20.93Q258.93-19.28 258.04-14.88L258.04-14.88L258.04-14.88Q257.15-10.48 257.15-7.34L257.15-7.34L257.15-7.34Q257.15-4.21 257.63-3.29L257.63-3.29L257.63-3.29Q258.12-2.38 258.98-2.38L258.98-2.38L258.98-2.38Q260.71-2.38 261.98-4.02L261.98-4.02L261.98-4.02Q263.25-5.67 263.74-8.59L263.74-8.59L266.60-24.41L266.60-24.41Q265.46-25.38 264.14-25.38L264.14-25.38L264.14-25.38Q262.82-25.38 262.03-24.95L262.03-24.95L262.03-24.95Q261.25-24.52 260.63-23.54ZM281.66-5.40L281.66-5.40L281.66-5.40Q281.66-6.86 282.42-10.53L282.42-10.53L285.28-25.11L282.10-25.11L282.31-26.73L282.31-26.73Q288.79-28.67 295.06-33.43L295.06-33.43L297.65-33.43L296.35-27.54L300.56-27.54L300.08-25.11L295.92-25.11L293.17-10.53L293.17-10.53Q292.46-7.18 292.46-6.05L292.46-6.05L292.46-6.05Q292.46-3.46 294.73-2.92L294.73-2.92L294.73-2.92Q294.19-1.08 292.25 0L292.25 0L292.25 0Q290.30 1.08 287.55 1.08L287.55 1.08L287.55 1.08Q284.80 1.08 283.23-0.65L283.23-0.65L283.23-0.65Q281.66-2.38 281.66-5.40ZM346.46-22.41L346.46-22.41L346.46-22.41Q346.46 0.59 321.52 0.59L321.52 0.59L321.52 0.59Q317.52 0.59 310.93-0.38L310.93-0.38L316.98-32.29L316.98-32.29Q317.41-34.45 317.68-35.69L317.68-35.69L317.68-35.69Q325.89-36.29 329.54-36.29L329.54-36.29L329.54-36.29Q333.18-36.29 336.53-35.53L336.53-35.53L336.53-35.53Q339.88-34.78 342.09-33.10L342.09-33.10L342.09-33.10Q346.46-29.81 346.46-22.41ZM335.34-24.41L335.34-24.41L335.34-24.41Q335.34-32.45 329.56-32.45L329.56-32.45L329.02-32.45L329.02-32.45Q328.75-32.45 328.48-32.40L328.48-32.40L322.92-3.40L322.92-3.40Q323.14-3.29 323.35-3.29L323.35-3.29L323.78-3.29L323.78-3.29Q325.78-3.29 327.86-4.54L327.86-4.54L327.86-4.54Q329.94-5.78 331.56-8.32L331.56-8.32L331.56-8.32Q335.34-14.20 335.34-24.41ZM351.57-1.62L351.57-1.62L351.57-1.62Q350.30-3.02 349.73-5.24L349.73-5.24L349.73-5.24Q349.16-7.45 349.16-11.07L349.16-11.07L349.16-11.07Q349.16-14.69 350.41-17.98L350.41-17.98L350.41-17.98Q351.65-21.28 353.92-23.65L353.92-23.65L353.92-23.65Q358.56-28.62 366.23-28.62L366.23-28.62L366.23-28.62Q368.98-28.62 370.98-27.70L370.98-27.70L380.21-28.62L376.22-7.56L376.22-7.56Q376.06-6.91 376.06-5.72L376.06-5.72L376.06-5.72Q376.06-4.54 376.79-3.78L376.79-3.78L376.79-3.78Q377.51-3.02 378.59-2.92L378.59-2.92L378.59-2.92Q378.05-1.08 376.08 0L376.08 0L376.08 0Q374.11 1.08 371.90 1.08L371.90 1.08L371.90 1.08Q369.68 1.08 368.20 0.24L368.20 0.24L368.20 0.24Q366.71-0.59 366.28-2.00L366.28-2.00L366.28-2.00Q365.42-0.65 363.58 0.22L363.58 0.22L363.58 0.22Q361.75 1.08 359.29 1.08L359.29 1.08L359.29 1.08Q356.83 1.08 354.83 0.43L354.83 0.43L354.83 0.43Q352.84-0.22 351.57-1.62ZM362.96-23.54L362.96-23.54L362.96-23.54Q362.34-22.57 361.80-20.93L361.80-20.93L361.80-20.93Q361.26-19.28 360.37-14.88L360.37-14.88L360.37-14.88Q359.48-10.48 359.48-7.34L359.48-7.34L359.48-7.34Q359.48-4.21 359.96-3.29L359.96-3.29L359.96-3.29Q360.45-2.38 361.31-2.38L361.31-2.38L361.31-2.38Q363.04-2.38 364.31-4.02L364.31-4.02L364.31-4.02Q365.58-5.67 366.07-8.59L366.07-8.59L368.93-24.41L368.93-24.41Q367.79-25.38 366.47-25.38L366.47-25.38L366.47-25.38Q365.15-25.38 364.37-24.95L364.37-24.95L364.37-24.95Q363.58-24.52 362.96-23.54ZM399.28-18.95L399.28-18.95L399.28-18.95Q400.03-20.95 400.03-22.68L400.03-22.68L400.03-22.68Q400.03-25.87 397.44-25.87L397.44-25.87L397.44-25.87Q396.09-25.87 394.98-24.65L394.98-24.65L394.98-24.65Q393.88-23.44 393.88-21.92L393.88-21.92L393.88-21.92Q393.88-20.84 394.74-19.98L394.74-19.98L394.74-19.98Q395.98-18.79 399.17-16.85L399.17-16.85L399.17-16.85Q402.35-14.90 403.57-13.31L403.57-13.31L403.57-13.31Q404.78-11.72 404.78-9.53L404.78-9.53L404.78-9.53Q404.78-7.34 403.73-5.35L403.73-5.35L403.73-5.35Q402.68-3.35 400.79-1.94L400.79-1.94L400.79-1.94Q396.74 1.08 390.26 1.08L390.26 1.08L390.26 1.08Q386.75 1.08 384.05-0.76L384.05-0.76L384.05-0.76Q381.35-2.54 381.35-4.64L381.35-4.64L381.35-4.64Q381.35-6.75 382.89-7.99L382.89-7.99L382.89-7.99Q384.43-9.23 386.69-9.23L386.69-9.23L386.69-9.23Q388.96-9.23 390.37-8.37L390.37-8.37L390.37-8.37Q389.66-6.59 389.66-5.40L389.66-5.40L389.66-5.40Q389.66-1.84 392.69-1.84L392.69-1.84L392.69-1.84Q393.98-1.84 394.85-2.65L394.85-2.65L394.85-2.65Q395.71-3.46 395.71-4.86L395.71-4.86L395.71-4.86Q395.71-7.61 391.07-10.53L391.07-10.53L391.07-10.53Q387.29-13.01 386.42-13.99L386.42-13.99L386.42-13.99Q384.97-15.71 384.97-17.87L384.97-17.87L384.97-17.87Q384.97-20.03 385.99-22.09L385.99-22.09L385.99-22.09Q387.02-24.14 388.91-25.60L388.91-25.60L388.91-25.60Q392.85-28.62 399.71-28.62L399.71-28.62L399.71-28.62Q403.22-28.62 405.30-27.22L405.30-27.22L405.30-27.22Q407.38-25.81 407.38-23.44L407.38-23.44L407.38-23.44Q407.38-21.06 405.94-19.71L405.94-19.71L405.94-19.71Q404.51-18.36 401.92-18.36L401.92-18.36L401.92-18.36Q400.14-18.36 399.28-18.95ZM436.54-5.99L436.54-5.99L436.54-5.99Q436.54-3.62 438.97-2.92L438.97-2.92L438.97-2.92Q438.37-0.92 436.05 0.16L436.05 0.16L436.05 0.16Q434.11 1.08 431.97 1.08L431.97 1.08L431.97 1.08Q429.84 1.08 428.73 0.51L428.73 0.51L428.73 0.51Q427.63-0.05 427.03-0.97L427.03-0.97L427.03-0.97Q426.06-2.38 426.06-5.02L426.06-5.02L426.06-5.02Q426.06-6.59 426.92-10.91L426.92-10.91L427.68-15.01L427.68-15.01Q428.60-19.71 428.60-21.44L428.60-21.44L428.60-21.44Q428.60-24.46 426.92-24.46L426.92-24.46L426.92-24.46Q424.82-24.46 423.47-21.38L423.47-21.38L423.47-21.38Q422.93-20.20 422.55-18.41L422.55-18.41L418.88 0L408.02 1.08L415.64-37.80L426.49-38.88L426.06-36.72L426.06-36.72Q424.55-28.40 423.25-25.60L423.25-25.60L423.25-25.60Q426.28-28.62 431.84-28.62L431.84-28.62L431.84-28.62Q437.72-28.62 438.80-24.73L438.80-24.73L438.80-24.73Q439.18-23.49 439.18-22.41L439.18-22.41L439.18-22.41Q439.18-21.33 439.10-20.49L439.10-20.49L439.10-20.49Q439.02-19.66 438.75-18.14L438.75-18.14L438.05-14.26L436.81-8.15L436.81-8.15Q436.54-6.91 436.54-5.99ZM442.64-2.59L442.64-2.59L449.33-37.80L460.30-38.88L458.62-30.62L458.62-30.62Q458.03-28.08 457.27-26.30L457.27-26.30L457.27-26.30Q458.46-27.81 461.05-28.40L461.05-28.40L461.05-28.40Q461.81-28.62 462.73-28.62L462.73-28.62L462.73-28.62Q467.75-28.62 470.50-25.57L470.50-25.57L470.50-25.57Q473.26-22.52 473.26-16.63L473.26-16.63L473.26-16.63Q473.26-8.96 468.88-4.16L468.88-4.16L468.88-4.16Q464.18 1.08 455.65 1.08L455.65 1.08L455.65 1.08Q449.77 1.08 445.34-0.86L445.34-0.86L445.34-0.86Q443.77-1.57 442.64-2.59ZM456.35-18.90L453.49-3.08L453.49-3.08Q454.63-2.11 456.03-2.11L456.03-2.11L456.03-2.11Q457.43-2.11 458.24-2.65L458.24-2.65L458.24-2.65Q459.05-3.19 459.65-4.27L459.65-4.27L459.65-4.27Q461.27-7.18 462.56-16.09L462.56-16.09L462.56-16.09Q462.94-18.63 462.94-21.17L462.94-21.17L462.94-21.17Q462.94-23.71 462.38-24.52L462.38-24.52L462.38-24.52Q461.81-25.33 460.73-25.33L460.73-25.33L460.73-25.33Q457.43-25.33 456.35-18.90L456.35-18.90ZM488.27 1.08L488.27 1.08L488.27 1.08Q476.39 1.08 476.39-10.10L476.39-10.10L476.39-10.10Q476.39-18.04 480.76-23.17L480.76-23.17L480.76-23.17Q485.41-28.62 493.45-28.62L493.45-28.62L493.45-28.62Q499.28-28.62 502.25-25.92L502.25-25.92L502.25-25.92Q505.22-23.22 505.22-17.55L505.22-17.55L505.22-17.55Q505.22-8.91 500.58-3.89L500.58-3.89L500.58-3.89Q496.04 1.08 488.27 1.08ZM489.67-22.41L489.67-22.41L489.67-22.41Q489.02-20.95 488.51-18.77L488.51-18.77L488.51-18.77Q488.00-16.58 487.35-13.12L487.35-13.12L487.35-13.12Q486.70-9.67 486.70-5.40L486.70-5.40L486.70-5.40Q486.70-4.00 487.16-3.08L487.16-3.08L487.16-3.08Q487.62-2.16 488.86-2.16L488.86-2.16L488.86-2.16Q490.10-2.16 490.89-2.75L490.89-2.75L490.89-2.75Q491.67-3.35 492.26-4.75L492.26-4.75L492.26-4.75Q493.34-7.24 494.21-11.85L494.21-11.85L494.21-11.85Q495.07-16.47 495.15-18.47L495.15-18.47L495.15-18.47Q495.23-20.47 495.23-21.95L495.23-21.95L495.23-21.95Q495.23-23.44 494.80-24.41L494.80-24.41L494.80-24.41Q494.37-25.38 493.16-25.38L493.16-25.38L493.16-25.38Q491.94-25.38 491.13-24.62L491.13-24.62L491.13-24.62Q490.32-23.87 489.67-22.41ZM510.76-1.62L510.76-1.62L510.76-1.62Q509.49-3.02 508.92-5.24L508.92-5.24L508.92-5.24Q508.36-7.45 508.36-11.07L508.36-11.07L508.36-11.07Q508.36-14.69 509.60-17.98L509.60-17.98L509.60-17.98Q510.84-21.28 513.11-23.65L513.11-23.65L513.11-23.65Q517.75-28.62 525.42-28.62L525.42-28.62L525.42-28.62Q528.17-28.62 530.17-27.70L530.17-27.70L539.41-28.62L535.41-7.56L535.41-7.56Q535.25-6.91 535.25-5.72L535.25-5.72L535.25-5.72Q535.25-4.54 535.98-3.78L535.98-3.78L535.98-3.78Q536.71-3.02 537.79-2.92L537.79-2.92L537.79-2.92Q537.25-1.08 535.27 0L535.27 0L535.27 0Q533.30 1.08 531.09 1.08L531.09 1.08L531.09 1.08Q528.88 1.08 527.39 0.24L527.39 0.24L527.39 0.24Q525.91-0.59 525.47-2.00L525.47-2.00L525.47-2.00Q524.61-0.65 522.77 0.22L522.77 0.22L522.77 0.22Q520.94 1.08 518.48 1.08L518.48 1.08L518.48 1.08Q516.02 1.08 514.03 0.43L514.03 0.43L514.03 0.43Q512.03-0.22 510.76-1.62ZM522.15-23.54L522.15-23.54L522.15-23.54Q521.53-22.57 520.99-20.93L520.99-20.93L520.99-20.93Q520.45-19.28 519.56-14.88L519.56-14.88L519.56-14.88Q518.67-10.48 518.67-7.34L518.67-7.34L518.67-7.34Q518.67-4.21 519.16-3.29L519.16-3.29L519.16-3.29Q519.64-2.38 520.51-2.38L520.51-2.38L520.51-2.38Q522.23-2.38 523.50-4.02L523.50-4.02L523.50-4.02Q524.77-5.67 525.26-8.59L525.26-8.59L528.12-24.41L528.12-24.41Q526.99-25.38 525.66-25.38L525.66-25.38L525.66-25.38Q524.34-25.38 523.56-24.95L523.56-24.95L523.56-24.95Q522.77-24.52 522.15-23.54ZM559.22-15.17L559.22-15.17L559.22-15.17Q561.17-18.63 561.17-22.14L561.17-22.14L561.17-22.14Q561.17-24.46 559.49-24.46L559.49-24.46L559.49-24.46Q558.20-24.46 556.85-22.25L556.85-22.25L556.85-22.25Q555.44-20.03 555.01-17.17L555.01-17.17L552.20 0L541.03 1.08L546.53-27.54L555.44-28.62L554.47-23.17L554.47-23.17Q557.12-28.62 563.06-28.62L563.06-28.62L563.06-28.62Q566.19-28.62 567.89-27L567.89-27L567.89-27Q569.59-25.38 569.59-22.06L569.59-22.06L569.59-22.06Q569.59-18.74 567.40-16.63L567.40-16.63L567.40-16.63Q565.22-14.53 561.49-14.53L561.49-14.53L561.49-14.53Q559.87-14.53 559.22-15.17ZM587.47-28.62L587.47-28.62L587.47-28.62Q589.41-28.62 590.92-28.19L590.92-28.19L590.92-28.19Q590.98-28.40 591.08-29.00L591.08-29.00L591.35-30.67L591.35-30.67Q591.57-31.75 591.89-33.53L591.89-33.53L592.76-37.80L603.50-38.88L597.51-7.56L597.51-7.56Q597.46-7.24 597.46-6.70L597.46-6.70L597.46-5.83L597.46-5.83Q597.46-4.64 598.05-3.75L598.05-3.75L598.05-3.75Q598.64-2.86 599.62-2.86L599.62-2.86L599.62-2.86Q598.54-0.32 595.24 0.76L595.24 0.76L595.24 0.76Q594.11 1.08 592.51 1.08L592.51 1.08L592.51 1.08Q590.92 1.08 589.46 0.24L589.46 0.24L589.46 0.24Q588.01-0.59 587.57-2.00L587.57-2.00L587.57-2.00Q586.71-0.59 584.98 0.24L584.98 0.24L584.98 0.24Q583.25 1.08 580.74 1.08L580.74 1.08L580.74 1.08Q578.23 1.08 576.15 0.43L576.15 0.43L576.15 0.43Q574.07-0.22 572.78-1.62L572.78-1.62L572.78-1.62Q570.40-4.37 570.40-10.64L570.40-10.64L570.40-10.64Q570.40-18.74 575.15-23.65L575.15-23.65L575.15-23.65Q579.91-28.62 587.47-28.62ZM587.09-25.38L587.09-25.38L587.09-25.38Q585.09-25.38 584.01-23.22L584.01-23.22L584.01-23.22Q582.93-21.06 581.82-15.71L581.82-15.71L581.82-15.71Q580.72-10.37 580.72-5.56L580.72-5.56L580.72-5.56Q580.72-2.27 582.66-2.27L582.66-2.27L582.66-2.27Q584.39-2.27 585.60-4.00L585.60-4.00L585.60-4.00Q586.82-5.72 587.30-8.59L587.30-8.59L590.22-24.41L590.22-24.41Q589.09-25.38 587.09-25.38Z" fill="none" stroke="#deddff" stroke-width="1"></path></g></g><style>text {
  font-size: 64px;
  font-family: Arial Black;
  dominant-baseline: central;
  text-anchor: middle;
}</style></svg>